<svg width="18" height="20" fill="none" xmlns="http://www.w3.org/2000/svg"><path d="M16.657 15.1c-.432.958-.638 1.385-1.196 2.231-.776 1.181-1.87 2.654-3.226 2.666-1.205.012-1.515-.783-3.15-.774-1.635.008-1.978.788-3.183.777-1.356-.012-2.392-1.341-3.17-2.524-2.17-3.305-2.397-7.182-1.058-9.243.951-1.467 2.452-2.323 3.865-2.323 1.437 0 2.34.787 3.528.787 1.153 0 1.855-.788 3.518-.788 1.256 0 2.587.684 3.535 1.865-3.106 1.703-2.601 6.14.537 7.326Z"/><path d="M1.843 15.1c.432.958.639 1.385 1.196 2.231.776 1.181 1.87 2.654 3.226 2.666 1.205.012 1.515-.783 3.15-.774 1.635.008 1.978.788 3.183.777 1.356-.012 2.392-1.341 3.17-2.524 2.17-3.305 2.397-7.182 1.059-9.243-.952-1.467-2.453-2.323-3.865-2.323-1.438 0-2.34.787-3.53.787-1.152 0-1.854-.788-3.517-.788-1.256 0-2.587.684-3.535 1.865 3.107 1.703 2.602 6.14-.537 7.326ZM12.005 3.374c.682-.875 1.2-2.112 1.011-3.374C11.902.076 10.6.785 9.84 1.709 9.149 2.547 8.579 3.79 8.8 5c1.216.037 2.474-.689 3.205-1.626Z"/></svg>