<svg width="178" height="61" fill="none" xmlns="http://www.w3.org/2000/svg"><path d="M72.281 38.553c-1.131-.507-1.948-1.268-2.577-2.22-.628-.95-.943-2.028-1.005-3.297h2.954c.062 1.078.565 1.966 1.32 2.664.754.697 1.885 1.014 3.142 1.014 1.132 0 2.011-.253 2.703-.697.691-.508 1.068-1.142 1.068-2.03 0-.634-.188-1.14-.565-1.521-.377-.38-.88-.634-1.509-.825-.628-.19-1.571-.38-2.765-.634h-.126c-1.131-.19-2.137-.444-2.954-.824-.817-.38-1.509-.888-2.074-1.585-.503-.698-.755-1.649-.755-2.79 0-1.078.252-2.03.817-2.854.566-.824 1.32-1.458 2.326-1.965a8.326 8.326 0 0 1 3.394-.698c1.32 0 2.514.254 3.52.761 1.069.507 1.886 1.141 2.451 2.03.629.887.943 1.901.943 2.98h-2.954a3.46 3.46 0 0 0-1.257-2.283c-.692-.571-1.634-.888-2.703-.888-1.068 0-1.948.254-2.577.697-.628.444-.943 1.142-.943 1.966 0 .634.189 1.078.566 1.459.377.316.88.634 1.509.824.628.19 1.508.38 2.702.634 1.194.19 2.2.507 3.08.824.88.317 1.571.888 2.137 1.585.566.698.817 1.65.817 2.79 0 1.078-.314 2.03-.88 2.917-.566.888-1.383 1.522-2.451 2.03-1.069.507-2.2.697-3.52.697-1.445.063-2.765-.19-3.834-.761ZM95.851 26.252a5.967 5.967 0 0 1 2.263 2.41c.565 1.077.817 2.282.817 3.74 0 1.395-.252 2.6-.817 3.615-.566 1.078-1.32 1.902-2.263 2.473a6.313 6.313 0 0 1-3.268.887c-1.195 0-2.2-.253-3.017-.76-.817-.508-1.383-1.205-1.823-2.03l.377-.634v8.624h-2.828v-18.96h2.451l.566 3.361-.629-.634a7.483 7.483 0 0 1 1.886-2.092c.817-.508 1.76-.761 2.954-.761 1.257-.064 2.325.253 3.331.76Zm-5.845 2.155c-.629.38-1.069.888-1.383 1.586a5.585 5.585 0 0 0-.503 2.346c0 .888.189 1.712.503 2.41.314.697.817 1.204 1.383 1.648.628.38 1.257.57 2.074.57a3.93 3.93 0 0 0 2.074-.57c.629-.38 1.069-.951 1.383-1.585a5.586 5.586 0 0 0 .503-2.346c0-.888-.189-1.649-.503-2.347-.315-.697-.755-1.204-1.383-1.585a3.93 3.93 0 0 0-2.074-.57c-.817-.127-1.509.063-2.074.444ZM104.022 38.49a5.785 5.785 0 0 1-2.451-2.473 7.673 7.673 0 0 1-.88-3.615c0-1.395.314-2.6.88-3.678.565-1.077 1.382-1.838 2.451-2.409a7.503 7.503 0 0 1 3.583-.888c1.382 0 2.577.317 3.582.888a6.004 6.004 0 0 1 2.451 2.41c.566 1.077.88 2.282.88 3.677s-.314 2.6-.88 3.678c-.565 1.078-1.382 1.839-2.451 2.473a7.502 7.502 0 0 1-3.582.888c-1.383-.064-2.577-.38-3.583-.951Zm5.657-2.156c.628-.38 1.068-.888 1.382-1.586a5.575 5.575 0 0 0 .503-2.346c0-.887-.188-1.648-.503-2.346-.314-.697-.754-1.205-1.382-1.585a3.93 3.93 0 0 0-2.074-.57c-.755 0-1.509.19-2.075.57-.628.38-1.068.888-1.382 1.585a5.575 5.575 0 0 0-.503 2.346c0 .888.188 1.649.503 2.346.314.698.817 1.205 1.382 1.586.629.38 1.32.57 2.075.57.754 0 1.508-.19 2.074-.57ZM119.295 25.617l.503 3.361-.566-.634c.378-.824.943-1.522 1.572-1.966.628-.507 1.571-.697 2.765-.697h.629v2.663h-1.257c-1.194 0-2.012.38-2.577 1.141-.503.761-.817 1.776-.817 2.98v6.849h-2.829V25.617h2.577ZM126.083 21.75h2.829v3.804h3.268v2.473h-3.268v7.102c0 .57.125.951.314 1.141.189.254.566.317 1.069.317h2.199v2.537h-2.765c-1.257 0-2.2-.317-2.766-.888-.565-.57-.88-1.522-.88-2.79V21.75ZM137.208 38.553c-1.131-.507-1.948-1.268-2.577-2.22-.628-.95-.942-2.028-1.005-3.297h2.954c.063 1.078.565 1.966 1.32 2.664.754.697 1.885 1.014 3.142 1.014 1.132 0 2.012-.253 2.703-.697.691-.508 1.069-1.142 1.069-2.03 0-.634-.189-1.14-.566-1.521-.377-.38-.88-.634-1.509-.825-.628-.19-1.571-.38-2.765-.634h-.126c-1.131-.19-2.137-.444-2.954-.824-.817-.38-1.508-.888-2.074-1.585-.503-.698-.754-1.649-.754-2.79 0-1.078.251-2.03.817-2.854.565-.824 1.32-1.458 2.325-1.965a8.327 8.327 0 0 1 3.394-.698c1.32 0 2.515.254 3.52.761 1.069.507 1.886 1.141 2.451 2.03a5.08 5.08 0 0 1 .943 2.98h-2.954a3.463 3.463 0 0 0-1.257-2.283c-.691-.571-1.634-.888-2.703-.888-1.068 0-1.948.254-2.577.697-.628.444-.942 1.142-.942 1.966 0 .634.188 1.078.565 1.459.377.316.88.634 1.509.824.628.19 1.508.38 2.702.634 1.195.19 2.2.507 3.08.824.88.317 1.572.888 2.137 1.585.566.698.817 1.65.817 2.79 0 1.078-.314 2.03-.88 2.917-.565.888-1.382 1.522-2.451 2.03-1.068.507-2.2.697-3.52.697-1.445.063-2.702-.19-3.834-.761ZM153.047 38.49a6.016 6.016 0 0 1-2.451-2.41c-.566-1.078-.88-2.283-.88-3.678s.252-2.663.817-3.678c.566-1.014 1.32-1.838 2.326-2.409 1.005-.57 2.137-.888 3.457-.888 1.32 0 2.451.254 3.457.761 1.005.507 1.76 1.268 2.325 2.283a6.927 6.927 0 0 1 .88 3.424v.507c0 .19 0 .38-.063.571h-10.182v.127c.063.76.189 1.458.503 2.029.314.57.754 1.015 1.32 1.332a3.871 3.871 0 0 0 1.948.507c.88 0 1.634-.19 2.2-.634.629-.444 1.006-1.015 1.194-1.776h2.892c-.189.888-.503 1.712-1.069 2.41a6.849 6.849 0 0 1-2.074 1.712c-.88.38-1.823.634-2.891.634-1.446.063-2.703-.254-3.709-.824Zm1.697-10.336a3.124 3.124 0 0 0-1.257 1.141c-.314.507-.565 1.015-.628 1.649h7.228c-.126-1.015-.503-1.839-1.131-2.346-.629-.571-1.509-.825-2.515-.825-.628-.063-1.194.064-1.697.38ZM168.069 38.49a6.016 6.016 0 0 1-2.451-2.41c-.566-1.078-.88-2.283-.88-3.678s.251-2.663.817-3.678c.566-1.014 1.32-1.838 2.326-2.409 1.005-.57 2.137-.888 3.457-.888 1.32 0 2.451.254 3.457.761 1.005.507 1.759 1.268 2.325 2.283a6.927 6.927 0 0 1 .88 3.424v.507c0 .19 0 .38-.063.571h-10.182v.127c.063.76.189 1.458.503 2.029.314.57.754 1.015 1.32 1.332a3.871 3.871 0 0 0 1.948.507c.88 0 1.634-.19 2.2-.634.629-.444 1.006-1.015 1.194-1.776h2.891c-.188.888-.502 1.712-1.068 2.41a6.849 6.849 0 0 1-2.074 1.712c-.88.38-1.823.634-2.891.634-1.446.063-2.64-.254-3.709-.824Zm1.697-10.336a3.11 3.11 0 0 0-1.257 1.141c-.314.507-.565 1.015-.628 1.649h7.228c-.126-1.015-.503-1.839-1.132-2.346-.628-.571-1.508-.825-2.514-.825-.628-.063-1.194.064-1.697.38Z" fill="#E60000"/><path d="M29.598 58.703c15.794 0 28.598-12.918 28.598-28.852C58.196 13.917 45.393 1 29.598 1 13.804 1 1 13.917 1 29.851s12.804 28.852 28.598 28.852Z" fill="#FF0101"/><path d="M41.917 17.423c2.639 0 4.777-2.158 4.777-4.82 0-2.66-2.138-4.818-4.777-4.818-2.638 0-4.776 2.157-4.776 4.819 0 2.661 2.138 4.819 4.776 4.819Z" fill="#020203"/><mask id="mask0_48_1" style="mask-type:alpha" maskUnits="userSpaceOnUse" x="1" y="1" width="58" height="58"><path d="M29.598 58.703c15.794 0 28.598-12.918 28.598-28.852C58.196 13.917 45.393 1 29.598 1 13.804 1 1 13.917 1 29.851s12.804 28.852 28.598 28.852Z" fill="#FF0101"/></mask><g mask="url('#mask0_48_1')"><path d="M40.535 30.422c.314.507.88.824 1.508.824.314 0 .629-.063.943-.253l8.61-5.2c.88-.507 1.132-1.648.63-2.473a1.763 1.763 0 0 0-2.452-.634l-7.165 4.312-3.457-6.785a31.658 31.658 0 0 0-3.08-2.727l-10.245-5.2c-.691-.316-1.446-.253-2.011.255l-8.548 7.799c-.755.697-.817 1.839-.126 2.536.691.761 1.823.825 2.514.127l7.731-6.975 5.343 2.727-9.177 14.33L.623 58.07c-.817.95-.754 2.472.251 3.297.943.824 2.452.76 3.269-.254l20.301-23.651 8.737 2.029-5.971 9.448c-.629 1.141-.252 2.536.88 3.17a2.281 2.281 0 0 0 3.017-.697l7.668-12.239c.44-.634.503-1.458.251-2.155-.314-.698-.88-1.205-1.634-1.332L30.667 34.1l6.096-9.639 3.772 5.961Z" fill="#020203"/></g></svg>