<svg width="32" height="32" fill="none" xmlns="http://www.w3.org/2000/svg"><path d="M13.333 10.667 9 15c.413.16.747.36 1.027.52.493.307.786.48 1.533.48.747 0 1.04-.173 1.533-.48.614-.36 1.44-.853 2.92-.853s2.307.493 2.907.853c.493.293.8.48 1.533.48.734 0 1.04-.173 1.534-.48.16-.093.346-.2.546-.307l-8.56-8.546C11.907 4.6 10 3.987 6.667 4v3.333c2.426-.013 3.853.52 5.333 2l1.333 1.334Zm16 11.333h-.026.026Zm-22.2-1.333c.734 0 1.04.186 1.534.48.6.36 1.426.853 2.906.853 1.48 0 2.307-.493 2.907-.853.493-.307.787-.48 1.533-.48.734 0 1.04.186 1.534.48.6.36 1.426.853 2.906.853 1.48 0 2.307-.493 2.907-.853.493-.307.787-.48 1.533-.48.734 0 1.04.186 1.534.48.6.36 1.413.84 2.88.853v-2.667c-.734 0-1.04-.186-1.534-.48-.6-.36-1.426-.853-2.906-.853-1.48 0-2.307.493-2.907.853-.493.307-.8.48-1.533.48-.734 0-1.04-.186-1.534-.48-.6-.36-1.426-.853-2.906-.853-1.48 0-2.307.493-2.907.853-.493.307-.787.48-1.533.48-.734 0-1.04-.186-1.534-.48-.6-.36-1.426-.853-2.906-.853-1.48 0-2.307.493-2.907.853-.493.307-.787.48-1.533.48V22c1.48 0 2.306-.493 2.933-.853.493-.307.8-.48 1.533-.48ZM24.893 24c-1.48 0-2.306.493-2.906.853-.494.307-.8.48-1.534.48-.733 0-1.04-.186-1.533-.48-.6-.36-1.427-.853-2.907-.853s-2.306.493-2.92.853c-.493.307-.786.48-1.533.48-.747 0-1.04-.173-1.533-.48C9.427 24.493 8.6 24 7.12 24s-2.307.493-2.92.853c-.493.307-.787.48-1.533.48V28c1.48 0 2.306-.493 2.92-.853.493-.307.8-.48 1.533-.48.733 0 1.04.173 1.533.48.6.36 1.427.853 2.907.853s2.307-.493 2.92-.853c.493-.307.787-.48 1.533-.48.734 0 1.04.186 1.534.48.6.36 1.426.853 2.906.853 1.48 0 2.294-.493 2.907-.853.493-.307.787-.48 1.533-.48.734 0 1.04.186 1.534.48.6.36 1.426.853 2.906.853v-2.667c-.746 0-1.04-.173-1.533-.48-.6-.36-1.427-.853-2.907-.853ZM22 10.667A3.333 3.333 0 1 0 22 4a3.333 3.333 0 0 0 0 6.667Z" fill="#FF0101"/></svg>